<svg version="1.1" xmlns="http://www.w3.org/2000/svg" xmlns:xlink="http://www.w3.org/1999/xlink" width="48" height="48"><defs><linearGradient x1="9.15038" y1="12.92838" x2="71.09188" y2="67.31397" gradientUnits="userSpaceOnUse" id="color-1"><stop offset="0" stop-color="#000000" stop-opacity="0.3"></stop><stop offset="1" stop-color="#000000" stop-opacity="0"></stop></linearGradient><filter id="dropshadow-base"><feColorMatrix type="matrix" values="0 0 0 0 0  0 0 0 0 0  0 0 0 0 0  0 0 0 .8 0"></feColorMatrix> <feOffset dx="0" dy="1"></feOffset> <feGaussianBlur stdDeviation="1"></feGaussianBlur> <feComposite in="SourceGraphic"></feComposite></filter><filter id="dropshadow-banner" x="-10%" y="-10%" width="120%" height="130%"><feColorMatrix type="matrix" values="0 0 0 0 0  0 0 0 0 0  0 0 0 0 0  0 0 0 .4 0"></feColorMatrix> <feOffset dx="0" dy="1"></feOffset> <feGaussianBlur stdDeviation="0.5"></feGaussianBlur> <feComposite in="SourceGraphic"></feComposite></filter></defs><g fill="none" fill-rule="nonzero" stroke="none" stroke-width="none" stroke-linecap="butt" stroke-linejoin="miter" stroke-miterlimit="10" stroke-dasharray="" stroke-dashoffset="0" font-family="none" font-weight="none" font-size="none" text-anchor="none" style="mix-blend-mode: normal"><path d="M2,24c0,-12.15026 9.84974,-22 22,-22c12.15026,0 22,9.84974 22,22c0,12.15026 -9.84974,22 -22,22c-12.15026,0 -22,-9.84974 -22,-22z" id="base 1 5" fill="#009688" stroke-width="1"></path><path d="M18.55412,14.48744c0.17382,0.04492 0.3867,0.1229 0.47307,0.17328c0.04601,0.02684 0.08895,0.06034 0.12866,0.10004l0.50898,0.50898c-0.01229,-0.17998 -0.05372,-0.35474 -0.12353,-0.50957c-0.04931,-0.10939 -0.10781,-0.2157 -0.14113,-0.2584l-0.02898,-0.02898c-0.06463,-0.06463 -0.03466,-0.13487 0.12173,-0.30542c0.32188,-0.35102 0.72036,-0.53247 1.16932,-0.53247c0.1833,0 0.24457,0.00193 0.27922,0.03658l0.55561,0.55561c0.08683,-0.10486 0.08601,-0.18801 -0.00016,-0.29903c-0.14398,-0.18553 -0.16413,-0.25397 -0.10246,-0.34811c0.0667,-0.10178 0.34987,-0.23997 0.69182,-0.33761c0.35999,-0.10277 1.05556,-0.09471 1.35705,0.01576c0.21024,0.07702 0.36261,0.16044 0.44127,0.2391l0.47077,0.47077c0.06411,-0.00063 0.1248,-0.00143 0.18167,-0.00241l-0.21613,-0.21613c-0.01964,-0.01964 -0.01933,-0.05012 -0.01677,-0.10626c0.00307,-0.06702 0.02655,-0.1471 0.05215,-0.17796c0.08265,-0.09958 0.49148,-0.30417 0.81601,-0.40832c0.42268,-0.13567 1.21784,-0.16978 1.72892,-0.07416c0.68597,0.12834 1.45297,0.51595 1.81016,0.87314l0.99982,0.99982c0.01355,0.00163 0.02713,0.00328 0.04073,0.00495l-0.37825,-0.37825c-0.02817,-0.02817 -0.03545,-0.08533 -0.04589,-0.22434c-0.00962,-0.12803 -0.02955,-0.2606 -0.04427,-0.29459c-0.02288,-0.05284 0.0091,-0.06567 0.22013,-0.08827c0.33508,-0.03589 0.8727,0.01065 1.16898,0.10119c0.32384,0.09896 0.60495,0.26625 0.8276,0.4889l1.459,1.459c0.21237,0.05889 0.37184,0.10974 0.47684,0.15214c0.43071,0.17393 0.74349,0.35912 0.94406,0.55969l11.27351,11.27351c-1.67267,9.326 -9.22254,16.61302 -18.67956,17.89104l-15.65323,-15.65323c-0.44317,-0.44317 -0.71644,-1.07453 -0.67699,-1.68729c0.00837,-0.13008 0.02668,-0.24958 0.05871,-0.36621l-0.7957,-0.7957c-0.31371,-0.31371 -0.54393,-0.67161 -0.66938,-1.04473c-0.08971,-0.26686 -0.09683,-0.32972 -0.07968,-0.70209c0.01037,-0.22494 0.04654,-0.50937 0.08038,-0.63208c0.13626,-0.49392 0.43073,-1.08648 0.90167,-1.81443l0.24536,-0.37926l0.72942,0.72942c-0.33021,-0.33607 -0.47831,-0.78475 -0.40906,-1.27815c0.01156,-0.08237 0.02935,-0.17174 0.05203,-0.26389l-0.25424,-0.25424c-0.04087,-0.04087 -0.12933,-0.73564 -0.12858,-1.0153c0.00036,-0.37745 0.05315,-0.61463 0.20199,-0.90761c0.17396,-0.34243 0.40139,-0.52574 1.04619,-0.84323c0.89566,-0.44102 1.04609,-0.61721 1.42796,-1.6726c0.22756,-0.62888 0.42494,-0.97326 0.71775,-1.25233c0.47541,-0.45308 1.02614,-0.56554 1.96938,-0.40214c0.32402,0.05613 0.48322,0.10877 0.83657,0.27661c0.24002,0.114 0.57862,0.24278 0.75243,0.28617c0.06839,0.01707 0.14859,0.03709 0.22874,0.0571l-0.63191,-0.63191c-0.01339,-0.01339 -0.02673,-0.02825 -0.04159,-0.04518c-0.2065,-0.23519 -0.19597,-0.56219 0.02502,-0.77682c0.28562,-0.27739 1.06876,-0.39349 1.64679,-0.24411z" fill="url(#color-1)" stroke-width="1"></path><path d="M26.75248,34.99961c0.53905,-0.08342 0.83293,-0.1675 1.19941,-0.34315c0.67951,-0.32568 1.18864,-0.98379 1.22732,-1.58648c0.01595,-0.24861 0.00327,-0.31623 -0.13631,-0.72636c-0.15069,-0.4428 -0.43317,-1.09205 -0.74466,-1.71156c-0.08589,-0.17082 -0.14881,-0.31795 -0.13981,-0.32695c0.02613,-0.02613 0.29482,0.29438 0.55128,0.6576c0.34457,0.488 0.59456,0.97812 0.77736,1.52405l0.16114,0.48123l0.27831,0.11586c0.54776,0.22803 0.92584,0.30272 1.62231,0.32048c0.58752,0.01498 0.65827,0.00937 1.00357,-0.0796c0.66431,-0.17116 1.16379,-0.46011 1.61997,-0.93717c0.32421,-0.33903 0.46377,-0.55071 0.65771,-0.99757c0.21689,-0.49972 0.3191,-0.66738 0.56439,-0.92576c0.26786,-0.28215 0.53385,-0.46906 1.1738,-0.8248c1.10811,-0.61599 1.47324,-0.94504 1.76662,-1.59208c0.2046,-0.45123 0.23973,-0.65203 0.23822,-1.36193c-0.00156,-0.73008 -0.05653,-1.06119 -0.29526,-1.77776c-0.20899,-0.62737 -0.59524,-1.36495 -0.86518,-1.65219c-0.10901,-0.11599 -0.27789,-0.13588 -0.40396,-0.04758c-0.12218,0.08558 -0.2906,0.3735 -0.49028,0.83814c-0.43016,1.00095 -1.28538,2.84097 -1.25268,2.69515c0.00916,-0.0409 0.11693,-0.50938 0.23948,-1.04107c0.27297,-1.18428 0.3165,-1.49941 0.2902,-2.10073c-0.04198,-0.95966 -0.30082,-1.72088 -0.96222,-2.82984c-0.4474,-0.75013 -0.80626,-1.12025 -1.31378,-1.35498c-0.4254,-0.19675 -0.79966,-0.28424 -1.24149,-0.29022l-0.39011,-0.00528l-0.04848,0.16556c-0.02666,0.09105 -0.07563,0.35039 -0.1088,0.57631c-0.08648,0.5888 -0.05709,1.02453 0.11422,1.69349c0.16993,0.66355 0.20037,0.98791 0.11901,1.26778c-0.05498,0.18914 -0.28827,0.52379 -0.33416,0.47935c-0.01077,-0.01044 0.00676,-0.16102 0.03902,-0.33463c0.083,-0.44706 0.06967,-0.60036 -0.11961,-1.37531c-0.0924,-0.37832 -0.17803,-0.8217 -0.19027,-0.9853c-0.03625,-0.48413 0.06125,-1.15847 0.32517,-2.24902c0.12685,-0.52418 0.12242,-0.67266 -0.02971,-0.99494c-0.17211,-0.36458 -0.66924,-0.80254 -1.23137,-1.08481c-0.71913,-0.3611 -1.76085,-0.5377 -2.33777,-0.39632c-0.8006,0.1962 -1.31533,0.72581 -2.23415,2.29873c-0.7742,1.32537 -1.23687,3.04854 -1.19053,4.43414c0.01739,0.51986 0.01509,0.54636 -0.03395,0.3904c-0.21932,-0.69755 -0.25463,-1.25964 -0.1272,-2.02419c0.17477,-1.04855 0.41139,-1.76483 0.90346,-2.73498c0.45045,-0.8881 0.52585,-1.1163 0.50694,-1.53428c-0.03317,-0.73308 -0.4436,-1.12785 -1.53363,-1.47513c-1.65894,-0.52854 -3.62339,-0.07923 -4.12405,0.94327c-0.1854,0.37863 -0.21122,0.58082 -0.24968,1.9546c-0.05593,1.99833 -0.08649,2.4169 -0.20358,2.78858c-0.15532,0.49302 -0.33611,0.80936 -0.53444,0.93514c-0.09188,0.05826 -0.20548,0.10593 -0.25247,0.10593c-0.083,0 -0.08184,-0.00469 0.04077,-0.16532c0.30801,-0.40351 0.46696,-1.30163 0.52492,-2.96594l0.02294,-0.65873l-0.16703,-0.17857c-0.57035,-0.60975 -1.86223,-0.94508 -2.75821,-0.71592c-0.52505,0.13429 -0.98352,0.51398 -1.26315,1.04611c-0.39951,0.76027 -0.46834,1.49137 -0.29877,3.17362c0.07968,0.79039 0.08374,0.9019 0.0356,0.976c-0.06434,0.09903 -0.07088,0.09949 -0.40586,0.02853c-0.14314,-0.03032 -0.38894,-0.05542 -0.54622,-0.05577c-0.15727,-0.00037 -0.29497,-0.01523 -0.30599,-0.03306c-0.01102,-0.01783 0.05074,-0.05817 0.13724,-0.08964c0.137,-0.04984 0.24847,-0.07722 0.65008,-0.15968c0.0814,-0.01671 0.08317,-0.02658 0.06139,-0.34179c-0.01929,-0.27926 -0.0349,-0.33603 -0.11177,-0.40651c-0.17896,-0.16412 -0.68325,-0.2158 -0.93876,-0.09622c-0.21738,0.10174 -0.53699,0.44692 -0.668,0.72145c-0.18923,0.3965 -0.24163,0.66135 -0.21979,1.11078c0.02292,0.47146 0.11057,0.74423 0.51985,1.61784c0.76027,1.62278 0.89965,2.42679 0.54409,3.13834c-0.06098,0.12204 -0.16831,0.27231 -0.23848,0.33393c-0.11981,0.10519 -0.36632,0.18841 -0.41473,0.14c-0.01199,-0.01199 0.03052,-0.08139 0.09446,-0.15422c0.55045,-0.62692 0.45499,-1.55812 -0.32796,-3.19943l-0.24909,-0.52218l-0.29449,-0.04535c-0.65418,-0.10073 -1.22848,-0.38721 -1.59625,-0.79625c-0.20547,-0.22853 -0.30711,-0.41474 -0.39125,-0.71671l-0.06215,-0.22309l-0.24537,0.37926c-0.47094,0.72794 -0.76542,1.32051 -0.90168,1.81442c-0.03385,0.1227 -0.07002,0.40713 -0.08039,0.63208c-0.01716,0.37237 -0.01002,0.43523 0.07969,0.70209c0.16088,0.47852 0.49409,0.93201 0.95474,1.29934c0.09412,0.07506 0.18615,0.1357 0.2045,0.13476c0.01834,-0.00097 0.08354,-0.0656 0.1449,-0.14367c0.06134,-0.07807 0.21259,-0.22138 0.3361,-0.31846c0.2243,-0.17632 0.64919,-0.44322 0.64919,-0.40781c0,0.0103 -0.08966,0.12443 -0.19925,0.25361c-0.48783,0.57506 -0.65297,0.91047 -0.68378,1.38885c-0.06088,0.94544 0.62276,1.93518 1.52621,2.2096c0.21264,0.06459 0.32282,0.07483 0.65221,0.06061c0.68222,-0.02943 1.0497,-0.22635 1.81744,-0.97387c0.292,-0.28432 0.53091,-0.50663 0.53091,-0.49404c0,0.01259 -0.03586,0.11873 -0.07969,0.23587c-0.10462,0.27961 -0.27883,0.57078 -0.51809,0.86587l-0.19417,0.23949l0.11655,0.35541c0.27736,0.84575 0.74548,1.33095 1.53678,1.59284c0.49724,0.16456 0.89974,0.20884 1.62975,0.17929c0.78504,-0.03177 1.2506,-0.09689 1.23244,-0.17238c-0.07975,-0.33162 -0.01751,-1.31364 0.11187,-1.76488l0.04264,-0.14872l0.0289,0.11154c0.0159,0.06135 0.05515,0.4216 0.08724,0.80056c0.03208,0.37896 0.084,0.78752 0.11536,0.9079c0.1461,0.56091 0.57531,1.06946 1.15448,1.36788c0.51168,0.26364 0.96363,0.37268 1.56479,0.37754c0.26922,0.00215 0.49869,-0.00523 0.50995,-0.01644c0.01125,-0.01121 -0.02178,-0.12496 -0.0734,-0.25276c-0.16106,-0.39875 -0.20261,-0.70571 -0.21968,-1.62307c-0.01803,-0.96877 -0.03228,-0.98167 0.2259,0.2045c0.16696,0.76704 0.31707,1.22675 0.48242,1.47743c0.30995,0.46989 1.04264,0.86284 1.92927,1.0347c0.3208,0.06218 1.39788,0.04211 1.89858,-0.03537zM20.77137,31.75002c-0.33747,-0.53459 -0.51076,-1.53981 -0.39818,-2.30977c0.02478,-0.16948 0.03734,-0.31586 0.0279,-0.32529c-0.04892,-0.04893 -0.65584,-0.16858 -1.04385,-0.20579c-0.96335,-0.0924 -1.53571,0.07333 -2.33421,0.67588l-0.12252,0.09245l0.09113,-0.12963c0.05012,-0.0713 0.21433,-0.26881 0.3649,-0.43891c0.42241,-0.4772 0.5416,-0.80302 0.45494,-1.24356c-0.05661,-0.28774 -0.18453,-0.543 -0.36011,-0.71857c-0.16015,-0.16016 -0.56521,-0.36002 -0.90509,-0.44661c-0.30904,-0.07873 -0.84712,-0.0514 -1.18449,0.06017c-0.13,0.04299 -0.24325,0.0713 -0.25164,0.0629c-0.02275,-0.02275 0.26808,-0.21763 0.48316,-0.32377c0.14216,-0.07014 0.19594,-0.12032 0.2192,-0.2045c0.04588,-0.16605 0.00475,-0.44482 -0.09912,-0.67168c-0.08985,-0.19626 -0.43624,-0.58348 -0.67293,-0.75225l-0.11154,-0.07954l0.1149,-0.00119c0.15718,-0.0016 0.5143,0.18422 0.74724,0.38883c0.26014,0.2285 0.38952,0.49762 0.41267,0.85843l0.01772,0.27599h0.137c0.69782,0 1.41172,0.44076 1.71506,1.05888c0.11899,0.24247 0.12715,0.2827 0.12437,0.61349c-0.002,0.23547 -0.02389,0.40885 -0.06546,0.51782c-0.03437,0.0901 -0.05742,0.16889 -0.05122,0.17509c0.00616,0.0062 0.11095,-0.01681 0.23278,-0.05114c0.35252,-0.09933 1.45386,-0.0871 1.88829,0.02097c0.18055,0.04491 0.33497,0.08166 0.34317,0.08166c0.00819,0 0.05074,-0.07111 0.09455,-0.15802c0.24235,-0.48081 0.66262,-0.90383 1.15507,-1.16261l0.2574,-0.13526l-0.26177,-0.18383c-0.63648,-0.44698 -1.13582,-1.34133 -1.32649,-2.37583c-0.04838,-0.26247 -0.06514,-0.54904 -0.06523,-1.11543c0,-0.93398 0.07987,-1.58548 0.36841,-2.99986c0.31608,-1.54934 0.43227,-1.91202 0.68865,-2.14971c0.11985,-0.11112 0.12022,-0.11119 0.09476,-0.01859c-0.09118,0.33162 -0.4821,2.0501 -0.57514,2.52831c-0.21689,1.11471 -0.24523,1.39436 -0.24489,2.41677c0,1.06442 0.04327,1.36448 0.29667,2.0739c0.19386,0.54272 0.62535,1.12984 1.01283,1.37809c0.21883,0.14021 0.73874,0.31569 1.18004,0.3983c0.36339,0.06803 1.17817,0.05807 1.43183,-0.01751c0.08038,-0.02395 0.22316,-0.13323 0.37181,-0.28459c0.40544,-0.41282 0.69369,-0.5772 1.50547,-0.85854c0.14315,-0.04961 0.45268,-0.12335 0.68785,-0.16386c0.71688,-0.1235 1.05267,-0.32854 1.27903,-0.78099c0.29671,-0.5931 0.30959,-1.08221 0.06122,-2.32465c-0.08216,-0.41094 -0.16458,-0.92233 -0.18317,-1.13643c-0.03696,-0.42571 0.00074,-0.95712 0.08147,-1.15459c0.04756,-0.11604 0.0514,-0.1008 0.07606,0.3022c0.04913,0.80287 0.20635,1.70766 0.43343,2.49431c0.26317,0.91165 0.14649,1.72864 -0.33283,2.33063l-0.14847,0.18648l0.36674,0.04445c0.96141,0.11652 1.53998,0.38107 1.91331,0.87487l0.10754,0.14225l0.28286,-0.02515c0.6397,-0.05687 1.04331,-0.23384 1.43842,-0.63071c0.4632,-0.46524 0.70238,-0.98384 0.88503,-1.91894c0.05393,-0.27607 0.11997,-0.71945 0.14677,-0.9853l0.04871,-0.48335l0.05131,0.16731c0.0339,0.11055 0.04998,0.33762 0.04741,0.66926c-0.0123,1.58084 -0.62601,2.85807 -1.5925,3.31427c-0.20951,0.09889 -0.62822,0.21808 -0.95996,0.27327c-0.12339,0.02052 -0.14077,0.03512 -0.12503,0.10508c0.01005,0.04468 0.04655,0.20673 0.08114,0.3601c0.04752,0.21077 0.07089,0.58753 0.09568,1.54301c0.03215,1.23845 0.0719,1.63013 0.18739,1.84591c0.02216,0.0414 0.03326,0.08232 0.02466,0.09092c-0.02941,0.02941 -0.13283,-0.11491 -0.28222,-0.39381c-0.184,-0.3435 -0.2134,-0.53823 -0.26579,-1.76015c-0.05137,-1.19793 -0.14309,-1.61861 -0.44476,-2.03988c-0.27395,-0.38257 -0.69534,-0.59124 -1.44831,-0.71717c-0.53341,-0.08921 -1.6273,-0.06265 -2.07323,0.05035c-0.76113,0.19286 -1.18272,0.40164 -1.58753,0.78617c-0.56547,0.53714 -0.81918,1.25696 -0.67865,1.9255c0.10159,0.48333 0.59215,1.33593 1.1917,2.07122c0.37759,0.46307 0.39347,0.48747 0.2767,0.4251c-0.04848,-0.0259 -0.33977,-0.29945 -0.6473,-0.6079c-0.44707,-0.44839 -0.60492,-0.63536 -0.78745,-0.93263c-0.24172,-0.39368 -0.39725,-0.79637 -0.43822,-1.13459c-0.03036,-0.25066 0.02925,-0.70623 0.12987,-0.99251c0.04112,-0.117 0.07477,-0.21331 0.07477,-0.21401c0,-0.00074 -0.25515,-0.0029 -0.56701,-0.00486c-0.38125,-0.00238 -0.65612,-0.02371 -0.83901,-0.06507c-0.39615,-0.08958 -0.58583,-0.07918 -0.89708,0.04916c-0.76925,0.31721 -1.14268,0.71607 -1.37487,1.4685c-0.04876,0.158 -0.08837,0.4121 -0.10145,0.65067c-0.02495,0.45555 0.0406,1.51056 0.11556,1.85972c0.0285,0.13273 0.04589,0.24725 0.03865,0.25449c-0.00728,0.00724 -0.05514,-0.05334 -0.10645,-0.13461zM34.016,28.93682c-0.13587,-0.02837 -0.36377,-0.10062 -0.50645,-0.16056c-0.24741,-0.10395 -0.90106,-0.44547 -0.90106,-0.47079c0,-0.00662 0.19324,0.04366 0.42942,0.11172c0.79326,0.22861 1.38903,0.2557 1.98097,0.0901c0.71722,-0.20066 1.2156,-0.58509 2.02447,-1.5616c0.24561,-0.29652 0.46258,-0.55586 0.48214,-0.57631c0.07432,-0.0777 -0.47122,0.97816 -0.62747,1.21443c-0.41936,0.6341 -1.00915,1.09339 -1.65691,1.2903c-0.33095,0.1006 -0.90324,0.12989 -1.2251,0.0627zM18.05124,25.75712c-0.82584,-0.61834 -1.38032,-1.24441 -1.69296,-1.91159c-0.21637,-0.46172 -0.26955,-0.73506 -0.24682,-1.26861c0.02234,-0.52458 0.09609,-0.79871 0.4112,-1.52856c0.17981,-0.41649 0.25294,-0.65282 0.38416,-1.24142c0.01976,-0.0886 0.02394,-0.08599 0.08939,0.05577c0.12304,0.26649 0.09649,0.63294 -0.08215,1.13402c-0.4036,1.13208 -0.48147,1.64907 -0.336,2.23086c0.19977,0.79892 0.7755,1.58443 1.78244,2.43187c0.16782,0.14123 0.30511,0.27592 0.30511,0.29931c0,0.05366 -0.07655,0.13176 -0.12916,0.13176c-0.02196,0 -0.24031,-0.15003 -0.48521,-0.33341zM38.74396,23.85469c0.24739,-0.87292 0.05608,-1.65068 -0.52556,-2.13663l-0.15265,-0.12754l-0.14233,0.12858c-0.22885,0.20675 -0.51529,0.22178 -1.03912,0.05451l-0.27886,-0.08904l0.48172,-0.01046c0.56387,-0.01225 0.59031,-0.02587 0.65526,-0.33762c0.05333,-0.25598 0.01972,-0.88199 -0.06215,-1.1577c-0.06521,-0.21956 -0.29076,-0.48912 -0.49685,-0.59378c-0.21081,-0.10707 -0.73654,-0.26142 -0.89037,-0.26142c-0.12913,0 -0.15107,0.01581 -0.25577,0.18424c-0.13918,0.22389 -0.35673,0.36643 -0.77714,0.50917c-0.17009,0.05775 -0.30925,0.11689 -0.30925,0.13143c0,0.01454 0.09763,0.18208 0.21695,0.3723c0.11932,0.19023 0.2811,0.46299 0.35952,0.60614c0.07841,0.14315 0.14559,0.26474 0.14929,0.2702c0.00371,0.00546 0.10446,-0.04892 0.2239,-0.12084c0.11944,-0.07192 0.2377,-0.13077 0.26279,-0.13077c0.0251,0 0.07469,-0.01115 0.11022,-0.02479c0.03666,-0.01407 -0.0182,0.08324 -0.12687,0.22502c-0.10531,0.1374 -0.2017,0.2906 -0.21422,0.34047c-0.03317,0.13217 -0.00252,0.32723 0.11036,0.70351c0.05502,0.1833 0.1179,0.49283 0.13974,0.68785c0.06472,0.57802 0.05436,0.5615 0.20014,0.31942c0.27493,-0.45657 0.46599,-0.62828 0.74954,-0.67362c0.40578,-0.06489 0.85329,0.40958 1.25846,1.33428l0.14374,0.32805l0.06595,-0.12853c0.03626,-0.0707 0.10087,-0.25178 0.14356,-0.40242zM12.51358,23.98051c-0.14665,-0.37986 -0.18319,-1.10531 -0.07819,-1.55231c0.15135,-0.64431 0.57958,-1.23975 1.05022,-1.46024c0.19034,-0.08918 0.26102,-0.10136 0.58815,-0.10136c0.2045,0 0.42201,0.01298 0.48335,0.02885l0.11154,0.02885l-0.01189,-0.64234c-0.02262,-1.22276 0.15957,-1.96512 0.63124,-2.5721l0.17463,-0.22472l-0.16927,-0.06426c-0.20368,-0.07731 -0.44342,-0.23814 -0.47408,-0.31803c-0.01224,-0.03188 -0.01766,-0.06146 -0.01207,-0.06574c0.00557,-0.00428 0.23817,0.02588 0.51685,0.06702l0.50667,0.07479l0.24983,-0.13732c0.1374,-0.07553 0.35278,-0.1616 0.47862,-0.19127c0.29146,-0.06873 1.15024,-0.07013 1.46604,-0.00238c0.22401,0.04805 0.23555,0.04693 0.28815,-0.02817c0.15377,-0.21953 -0.02741,-0.45206 -0.43063,-0.55272c-0.13178,-0.03289 -0.38182,-0.09531 -0.55564,-0.13869c-0.17382,-0.04339 -0.51242,-0.17216 -0.75244,-0.28617c-0.35336,-0.16784 -0.51255,-0.22047 -0.83657,-0.2766c-0.94324,-0.1634 -1.49397,-0.05093 -1.96938,0.40215c-0.29281,0.27907 -0.4902,0.62346 -0.71775,1.25233c-0.38188,1.05539 -0.5323,1.23158 -1.42796,1.67259c-0.64481,0.31749 -0.87223,0.50079 -1.0462,0.84323c-0.14884,0.29298 -0.20163,0.53016 -0.20199,0.90761c-0.00074,0.27967 0.08772,0.97443 0.12858,1.0153c0.00661,0.00656 0.05646,-0.08533 0.11086,-0.20423c0.05439,-0.1189 0.21925,-0.4227 0.36633,-0.67511c0.19522,-0.33503 0.27071,-0.43728 0.27961,-0.37872c0.0159,0.10461 -0.12379,0.56188 -0.24425,0.79954c-0.14295,0.28204 -0.26813,0.676 -0.31033,0.97665c-0.09365,0.66719 0.21014,1.25262 0.82425,1.5884c0.2333,0.12757 0.70283,0.27535 0.88402,0.27824c0.10403,0.00167 0.12063,-0.00884 0.09969,-0.06307zM12.16991,19.38337c0.72863,-0.24401 0.80019,-0.31791 0.84367,-0.87124c0.02624,-0.33396 0.04439,-0.40177 0.16554,-0.61839c0.07484,-0.13381 0.13943,-0.24325 0.14354,-0.24318c0.00408,0 0.00748,0.31672 0.00748,0.70368c0,0.65615 -0.00527,0.71064 -0.07794,0.80856c-0.20081,0.27054 -0.56179,0.38489 -1.20481,0.38166l-0.35321,-0.00178l0.47574,-0.15932zM35.19316,19.91583c0.4806,-0.28003 0.59956,-0.47304 0.56753,-0.92079c-0.03312,-0.46294 -0.32518,-0.87427 -0.76313,-1.07477c-0.20961,-0.09596 -0.87335,-0.22948 -1.15112,-0.23156c-0.1507,-0.00111 -0.15725,0.00372 -0.18175,0.13432c-0.01397,0.07452 -0.01595,0.29419 -0.00438,0.48815l0.02104,0.35266l-0.12167,-0.18141c-0.25216,-0.37594 -0.35182,-0.84935 -0.22885,-1.08714c0.05461,-0.10561 0.45768,-0.39919 0.49576,-0.36109c0.01173,0.01173 0.00334,0.07987 -0.01861,0.15143c-0.02196,0.07155 -0.03731,0.13016 -0.03411,0.13024c0.00319,0 0.21446,0.04101 0.46947,0.09096c0.25501,0.04995 0.4698,0.08468 0.47731,0.07717c0.02823,-0.02823 -0.07868,-0.45279 -0.14877,-0.59077c-0.15368,-0.30255 -0.52688,-0.57095 -1.1358,-0.81684c-0.29396,-0.11871 -1.01473,-0.30359 -2.12813,-0.54588c-0.48012,-0.10448 -0.88028,-0.1973 -0.88924,-0.20626c-0.00896,-0.00896 0.33785,-0.01629 0.7707,-0.01629c0.64036,0 0.787,-0.00946 0.787,-0.05077c0,-0.02793 -0.05903,-0.16879 -0.1312,-0.31303c-0.23306,-0.46585 -0.64643,-0.80704 -1.17258,-0.96782c-0.29628,-0.09054 -0.8339,-0.13707 -1.16898,-0.10119c-0.21104,0.0226 -0.24302,0.03543 -0.22014,0.08826c0.01472,0.034 0.03464,0.16656 0.04427,0.29458c0.01619,0.21549 0.02475,0.23429 0.11538,0.25333c0.11701,0.02458 1.02519,0.37669 1.15755,0.4488l0.09296,0.05064l-0.09296,-0.01912c-0.45838,-0.09429 -1.37674,-0.20416 -1.70497,-0.20398c-0.90452,0.00052 -1.81376,0.2453 -2.25388,0.60683l-0.11062,0.09086l-0.15124,-0.26534c-0.08318,-0.14594 -0.22294,-0.39918 -0.31059,-0.56275l-0.15936,-0.29741l0.32058,0.32869c0.18139,0.18598 0.34006,0.31925 0.36544,0.30694c0.02467,-0.01196 0.124,-0.07891 0.22075,-0.14879c0.33863,-0.24458 1.06727,-0.42747 1.71221,-0.42978c0.40617,-0.00145 0.42536,-0.01394 0.38139,-0.24831c-0.07631,-0.40676 -1.11206,-1.01812 -2.00922,-1.18595c-0.51108,-0.09561 -1.30624,-0.06151 -1.72892,0.07416c-0.32453,0.10416 -0.73336,0.30874 -0.81601,0.40832c-0.02561,0.03085 -0.04908,0.11094 -0.05215,0.17796c-0.00542,0.11852 -0.00074,0.12269 0.18031,0.15186c0.40446,0.06526 0.5763,0.107 0.5763,0.13999c0,0.02041 -0.42627,0.03452 -1.04326,0.03452c-0.75683,0 -1.03624,-0.01137 -1.01769,-0.04139c0.05318,-0.08603 0.34703,-0.17965 0.64079,-0.20415c0.28753,-0.02398 0.30472,-0.03032 0.30472,-0.11249c0,-0.1069 -0.18538,-0.2374 -0.50199,-0.35339c-0.3015,-0.11046 -0.99707,-0.11853 -1.35705,-0.01575c-0.34194,0.09763 -0.62512,0.23583 -0.69182,0.33762c-0.06168,0.09413 -0.04153,0.16257 0.10246,0.34811c0.09087,0.11708 0.08683,0.20316 -0.01484,0.31638c-0.06878,0.0766 -0.16861,0.11035 -0.56153,0.1898c-0.26284,0.05315 -0.49689,0.0903 -0.52012,0.08256c-0.02323,-0.00774 0.10934,-0.09237 0.2946,-0.18805c0.49489,-0.2556 0.49012,-0.25106 0.40109,-0.3819c-0.04022,-0.05911 -0.09287,-0.15348 -0.117,-0.20972c-0.04216,-0.09828 -0.05446,-0.10225 -0.31689,-0.10225c-0.44897,0 -0.84744,0.18145 -1.16933,0.53246c-0.16714,0.18226 -0.18988,0.24996 -0.10708,0.31869c0.02801,0.02325 0.09798,0.1466 0.15547,0.27411c0.14658,0.3251 0.16804,0.73808 0.0573,1.10267c-0.04397,0.14475 -0.08604,0.26319 -0.09349,0.26319c-0.00745,0 -0.0155,-0.13935 -0.0179,-0.30968c-0.008,-0.56888 -0.1755,-0.98965 -0.46005,-1.15565c-0.08637,-0.05038 -0.29925,-0.12836 -0.47307,-0.17328c-0.57802,-0.14937 -1.36118,-0.03328 -1.64679,0.24412c-0.22099,0.21463 -0.23153,0.54163 -0.02503,0.77682c0.11292,0.12862 0.13804,0.13803 0.76089,0.28517c0.43885,0.10367 0.82699,0.29031 0.99847,0.48012c0.11822,0.13086 0.13555,0.17403 0.13555,0.33768c0,0.10321 -0.02633,0.23856 -0.05851,0.3008c-0.03219,0.06223 -0.0531,0.11629 -0.04648,0.12012c0.00661,0.00383 0.11949,0.05666 0.25082,0.11738c0.13132,0.06073 0.32866,0.17316 0.43853,0.24984c0.10986,0.07669 0.2049,0.13943 0.2112,0.13943c0.00631,0 0.02287,-0.1625 0.03683,-0.3611c0.05964,-0.84847 0.25898,-1.36312 0.68284,-1.76298c0.40604,-0.38305 0.97133,-0.62794 1.75001,-0.75814c0.46572,-0.07787 1.44592,-0.06058 1.95624,0.03452c0.75666,0.141 1.4311,0.45367 1.83539,0.85089c0.2291,0.22509 0.44093,0.61863 0.47623,0.8847c0.01332,0.10043 0.02713,0.18259 0.03069,0.18259c0.00356,0 0.17395,-0.16313 0.37865,-0.36252c0.62981,-0.61344 1.03049,-0.79386 1.81757,-0.81843c0.39189,-0.01223 0.54704,-0.00074 0.81992,0.06084c1.59088,0.3589 2.727,1.26997 2.79105,2.23817c0.01424,0.21535 -0.00126,0.35087 -0.0704,0.61497l-0.08867,0.33875l0.35692,0.02339c0.95327,0.06247 1.88685,0.51473 2.37704,1.1515c0.0894,0.11614 0.17332,0.21115 0.1865,0.21115c0.01317,0 0.1408,-0.06809 0.28363,-0.1513z" id="path3960 1 1" fill="none" stroke-width="0"></path><path d="M26.75248,34.99961c-0.50069,0.07748 -1.57778,0.09755 -1.89858,0.03537c-0.88663,-0.17186 -1.61932,-0.56482 -1.92927,-1.0347c-0.16535,-0.25068 -0.31546,-0.7104 -0.48242,-1.47743c-0.25818,-1.18617 -0.24393,-1.17326 -0.2259,-0.2045c0.01707,0.91736 0.05862,1.22432 0.21968,1.62307c0.05162,0.12781 0.08465,0.24155 0.0734,0.25276c-0.01126,0.01121 -0.24073,0.01859 -0.50995,0.01644c-0.60115,-0.00485 -1.05311,-0.1139 -1.56479,-0.37754c-0.57917,-0.29842 -1.00838,-0.80697 -1.15448,-1.36788c-0.03136,-0.12039 -0.08328,-0.52895 -0.11536,-0.9079c-0.03209,-0.37896 -0.07135,-0.73921 -0.08724,-0.80056l-0.0289,-0.11154l-0.04264,0.14872c-0.12938,0.45124 -0.19162,1.43326 -0.11187,1.76488c0.01815,0.07549 -0.44741,0.1406 -1.23244,0.17238c-0.73002,0.02955 -1.13251,-0.01473 -1.62975,-0.17929c-0.7913,-0.26188 -1.25943,-0.74709 -1.53678,-1.59284l-0.11655,-0.35541l0.19417,-0.23949c0.23926,-0.29509 0.41348,-0.58626 0.51809,-0.86587c0.04383,-0.11714 0.07969,-0.22329 0.07969,-0.23587c0,-0.01259 -0.23892,0.20973 -0.53091,0.49404c-0.76774,0.74752 -1.13522,0.94444 -1.81744,0.97387c-0.3294,0.01421 -0.43957,0.00397 -0.65221,-0.06061c-0.90345,-0.27441 -1.58708,-1.26416 -1.52621,-2.2096c0.03081,-0.47838 0.19594,-0.8138 0.68378,-1.38885c0.10959,-0.12918 0.19925,-0.24331 0.19925,-0.25361c0,-0.03541 -0.42489,0.23149 -0.64919,0.40781c-0.12351,0.09708 -0.27476,0.24039 -0.3361,0.31846c-0.06135,0.07807 -0.12656,0.1427 -0.1449,0.14367c-0.01835,0.00095 -0.11037,-0.05969 -0.2045,-0.13476c-0.46065,-0.36733 -0.79386,-0.82082 -0.95474,-1.29934c-0.08971,-0.26686 -0.09685,-0.32972 -0.07969,-0.70209c0.01037,-0.22495 0.04654,-0.50938 0.08039,-0.63208c0.13626,-0.49391 0.43074,-1.08647 0.90168,-1.81442l0.24537,-0.37926l0.06215,0.22309c0.08414,0.30197 0.18578,0.48818 0.39125,0.71671c0.36777,0.40904 0.94206,0.69552 1.59625,0.79625l0.29449,0.04535l0.24909,0.52218c0.78295,1.6413 0.8784,2.5725 0.32796,3.19943c-0.06394,0.07283 -0.10645,0.14223 -0.09446,0.15422c0.04841,0.04841 0.29492,-0.03481 0.41473,-0.14c0.07017,-0.06162 0.1775,-0.21189 0.23848,-0.33393c0.35557,-0.71155 0.21618,-1.51555 -0.54409,-3.13834c-0.40928,-0.87361 -0.49693,-1.14638 -0.51985,-1.61784c-0.02184,-0.44943 0.03056,-0.71428 0.21979,-1.11078c0.13101,-0.27453 0.45062,-0.61971 0.668,-0.72145c0.25551,-0.11958 0.7598,-0.0679 0.93876,0.09622c0.07687,0.07048 0.09248,0.12725 0.11177,0.40651c0.02178,0.31521 0.02001,0.32508 -0.06139,0.34179c-0.4016,0.08246 -0.51307,0.10984 -0.65008,0.15968c-0.0865,0.03147 -0.14826,0.07181 -0.13724,0.08964c0.01103,0.01783 0.14872,0.03269 0.30599,0.03306c0.15728,0.00035 0.40307,0.02545 0.54622,0.05577c0.33499,0.07096 0.34153,0.0705 0.40586,-0.02853c0.04814,-0.0741 0.04407,-0.18562 -0.0356,-0.976c-0.16957,-1.68225 -0.10074,-2.41335 0.29877,-3.17362c0.27963,-0.53213 0.7381,-0.91182 1.26315,-1.04611c0.89599,-0.22915 2.18786,0.10617 2.75821,0.71592l0.16703,0.17857l-0.02294,0.65873c-0.05797,1.66431 -0.21692,2.56243 -0.52492,2.96594c-0.12261,0.16064 -0.12377,0.16532 -0.04077,0.16532c0.04699,0 0.1606,-0.04767 0.25247,-0.10593c0.19833,-0.12578 0.37912,-0.44211 0.53444,-0.93514c0.11709,-0.37168 0.14765,-0.79025 0.20358,-2.78858c0.03845,-1.37378 0.06428,-1.57597 0.24968,-1.9546c0.50067,-1.0225 2.46511,-1.47181 4.12405,-0.94327c1.09003,0.34729 1.50045,0.74206 1.53363,1.47513c0.01891,0.41798 -0.05649,0.64618 -0.50694,1.53428c-0.49207,0.97016 -0.72869,1.68643 -0.90346,2.73498c-0.12743,0.76455 -0.09212,1.32663 0.1272,2.02419c0.04903,0.15596 0.05134,0.12946 0.03395,-0.3904c-0.04634,-1.3856 0.41633,-3.10877 1.19053,-4.43414c0.91882,-1.57292 1.43355,-2.10253 2.23415,-2.29873c0.57693,-0.14138 1.61865,0.03522 2.33777,0.39632c0.56214,0.28227 1.05927,0.72023 1.23137,1.08481c0.15214,0.32228 0.15657,0.47076 0.02971,0.99494c-0.26392,1.09055 -0.36142,1.76489 -0.32517,2.24902c0.01224,0.1636 0.09787,0.60698 0.19027,0.9853c0.18928,0.77495 0.20262,0.92825 0.11961,1.37531c-0.03226,0.17361 -0.04979,0.32419 -0.03902,0.33463c0.04589,0.04444 0.27917,-0.29021 0.33416,-0.47935c0.08135,-0.27986 0.05091,-0.60423 -0.11901,-1.26778c-0.17131,-0.66896 -0.20069,-1.10469 -0.11422,-1.69349c0.03317,-0.22592 0.08214,-0.48525 0.1088,-0.57631l0.04848,-0.16556l0.39011,0.00528c0.44183,0.00598 0.81609,0.09347 1.24149,0.29022c0.50752,0.23474 0.86638,0.60485 1.31378,1.35498c0.66141,1.10896 0.92024,1.87018 0.96222,2.82984c0.0263,0.60132 -0.01723,0.91644 -0.2902,2.10073c-0.12255,0.53169 -0.23032,1.00017 -0.23948,1.04107c-0.0327,0.14582 0.82252,-1.6942 1.25268,-2.69515c0.19968,-0.46464 0.3681,-0.75257 0.49028,-0.83814c0.12607,-0.08831 0.29494,-0.06841 0.40396,0.04758c0.26994,0.28723 0.65619,1.02482 0.86518,1.65219c0.23872,0.71657 0.2937,1.04768 0.29526,1.77776c0.00151,0.7099 -0.03362,0.91069 -0.23822,1.36193c-0.29338,0.64704 -0.65851,0.97609 -1.76662,1.59208c-0.63995,0.35574 -0.90594,0.54265 -1.1738,0.8248c-0.24529,0.25838 -0.3475,0.42604 -0.56439,0.92576c-0.19394,0.44686 -0.3335,0.65854 -0.65771,0.99757c-0.45618,0.47705 -0.95566,0.76601 -1.61997,0.93717c-0.3453,0.08897 -0.41605,0.09458 -1.00357,0.0796c-0.69647,-0.01775 -1.07455,-0.09244 -1.62231,-0.32048l-0.27831,-0.11586l-0.16114,-0.48123c-0.1828,-0.54592 -0.43279,-1.03605 -0.77736,-1.52405c-0.25646,-0.36322 -0.52515,-0.68373 -0.55128,-0.6576c-0.009,0.009 0.05392,0.15612 0.13981,0.32695c0.31149,0.61951 0.59397,1.26876 0.74466,1.71156c0.13958,0.41013 0.15226,0.47775 0.13631,0.72636c-0.03868,0.60268 -0.54781,1.2608 -1.22732,1.58648c-0.36648,0.17565 -0.66036,0.25973 -1.19941,0.34315zM20.77137,31.75c0.05131,0.08128 0.09917,0.14185 0.10645,0.13461c0.00724,-0.00724 -0.01015,-0.12176 -0.03865,-0.25449c-0.07496,-0.34917 -0.14052,-1.40417 -0.11556,-1.85972c0.01308,-0.23857 0.05269,-0.49267 0.10145,-0.65067c0.2322,-0.75243 0.60562,-1.15128 1.37487,-1.4685c0.31125,-0.12834 0.50093,-0.13874 0.89708,-0.04916c0.18289,0.04136 0.45776,0.06269 0.83901,0.06507c0.31186,0.00195 0.56701,0.00411 0.56701,0.00486c0,0.00071 -0.03365,0.09701 -0.07477,0.21401c-0.10062,0.28628 -0.16023,0.74185 -0.12987,0.99251c0.04097,0.33822 0.1965,0.7409 0.43822,1.13459c0.18253,0.29727 0.34038,0.48424 0.78745,0.93263c0.30753,0.30845 0.59882,0.58201 0.6473,0.6079c0.11677,0.06237 0.10089,0.03797 -0.2767,-0.4251c-0.59955,-0.73529 -1.0901,-1.58789 -1.1917,-2.07122c-0.14052,-0.66854 0.11318,-1.38837 0.67865,-1.9255c0.40481,-0.38453 0.8264,-0.59331 1.58753,-0.78617c0.44593,-0.113 1.53982,-0.13956 2.07323,-0.05035c0.75296,0.12593 1.17435,0.3346 1.44831,0.71717c0.30166,0.42127 0.39338,0.84196 0.44476,2.03988c0.0524,1.22192 0.0818,1.41665 0.26579,1.76015c0.14939,0.27891 0.25281,0.42322 0.28222,0.39381c0.0086,-0.0086 -0.0025,-0.04951 -0.02466,-0.09092c-0.11549,-0.21578 -0.15524,-0.60746 -0.18739,-1.84591c-0.02479,-0.95548 -0.04816,-1.33224 -0.09568,-1.54301c-0.03458,-0.15337 -0.07109,-0.31542 -0.08114,-0.3601c-0.01573,-0.06996 0.00164,-0.08456 0.12503,-0.10508c0.33173,-0.05518 0.75044,-0.17438 0.95996,-0.27327c0.96649,-0.4562 1.58019,-1.73344 1.5925,-3.31427c0.00258,-0.33164 -0.01351,-0.55871 -0.04741,-0.66926l-0.05131,-0.16731l-0.04871,0.48335c-0.0268,0.26584 -0.09284,0.70923 -0.14677,0.9853c-0.18264,0.93509 -0.42183,1.45369 -0.88503,1.91894c-0.39511,0.39686 -0.79873,0.57384 -1.43842,0.63071l-0.28286,0.02515l-0.10754,-0.14225c-0.37333,-0.49379 -0.9519,-0.75834 -1.91331,-0.87487l-0.36674,-0.04445l0.14847,-0.18648c0.47932,-0.602 0.59599,-1.41899 0.33283,-2.33063c-0.22708,-0.78665 -0.3843,-1.69144 -0.43343,-2.49431c-0.02466,-0.403 -0.0285,-0.41824 -0.07606,-0.3022c-0.08073,0.19748 -0.11843,0.72888 -0.08147,1.15459c0.01859,0.2141 0.10102,0.72549 0.18317,1.13643c0.24838,1.24243 0.23549,1.73155 -0.06122,2.32465c-0.22635,0.45246 -0.56214,0.6575 -1.27903,0.78099c-0.23517,0.04051 -0.5447,0.11425 -0.68785,0.16386c-0.81178,0.28134 -1.10003,0.44572 -1.50547,0.85854c-0.14865,0.15136 -0.29143,0.26064 -0.37181,0.28459c-0.25366,0.07557 -1.06844,0.08554 -1.43183,0.01751c-0.4413,-0.08261 -0.96121,-0.2581 -1.18004,-0.3983c-0.38748,-0.24825 -0.81898,-0.83536 -1.01283,-1.37809c-0.2534,-0.70941 -0.29667,-1.00948 -0.29667,-2.0739c-0.00034,-1.02241 0.028,-1.30206 0.24489,-2.41677c0.09304,-0.47821 0.48397,-2.19668 0.57514,-2.52831c0.02546,-0.0926 0.0251,-0.09252 -0.09476,0.01859c-0.25638,0.23769 -0.37256,0.60037 -0.68865,2.14971c-0.28854,1.41438 -0.36841,2.06588 -0.36841,2.99986c0.00009,0.56639 0.01685,0.85296 0.06523,1.11543c0.19067,1.0345 0.69001,1.92885 1.32649,2.37583l0.26177,0.18383l-0.2574,0.13526c-0.49245,0.25878 -0.91272,0.6818 -1.15507,1.16261c-0.04381,0.08691 -0.08636,0.15802 -0.09455,0.15802c-0.0082,0 -0.16262,-0.03675 -0.34317,-0.08166c-0.43443,-0.10807 -1.53577,-0.1203 -1.88829,-0.02097c-0.12183,0.03433 -0.22661,0.05734 -0.23278,0.05114c-0.00621,-0.0062 0.01685,-0.08499 0.05122,-0.17509c0.04157,-0.10897 0.06346,-0.28235 0.06546,-0.51782c0.00278,-0.33079 -0.00538,-0.37102 -0.12437,-0.61349c-0.30333,-0.61812 -1.01723,-1.05888 -1.71506,-1.05888h-0.137l-0.01772,-0.27599c-0.02315,-0.36081 -0.15252,-0.62992 -0.41267,-0.85843c-0.23295,-0.20461 -0.59007,-0.39042 -0.74724,-0.38883l-0.1149,0.00119l0.11154,0.07954c0.23669,0.16878 0.58308,0.55599 0.67293,0.75225c0.10387,0.22686 0.145,0.50564 0.09912,0.67168c-0.02325,0.08417 -0.07704,0.13435 -0.2192,0.2045c-0.21508,0.10613 -0.50591,0.30101 -0.48316,0.32377c0.0084,0.0084 0.12164,-0.01991 0.25164,-0.0629c0.33737,-0.11157 0.87545,-0.1389 1.18449,-0.06017c0.33988,0.08658 0.74494,0.28645 0.90509,0.44661c0.17558,0.17557 0.30349,0.43083 0.36011,0.71857c0.08666,0.44054 -0.03253,0.76636 -0.45494,1.24356c-0.15058,0.1701 -0.31478,0.36761 -0.3649,0.43891l-0.09113,0.12963l0.12252,-0.09245c0.7985,-0.60255 1.37086,-0.76828 2.33421,-0.67588c0.38802,0.03721 0.99493,0.15686 1.04385,0.20579c0.00944,0.00943 -0.00312,0.15581 -0.0279,0.32529c-0.11258,0.76996 0.06071,1.77518 0.39818,2.30977zM35.2411,28.87412c0.64777,-0.1969 1.23756,-0.6562 1.65691,-1.2903c0.15626,-0.23627 0.7018,-1.29213 0.62747,-1.21443c-0.01956,0.02045 -0.23653,0.27979 -0.48214,0.57631c-0.80887,0.97651 -1.30725,1.36094 -2.02447,1.5616c-0.59194,0.1656 -1.18772,0.13851 -1.98097,-0.0901c-0.23618,-0.06806 -0.42942,-0.11834 -0.42942,-0.11172c0,0.02532 0.65365,0.36684 0.90106,0.47079c0.14268,0.05995 0.37057,0.1322 0.50645,0.16056c0.32186,0.06719 0.89415,0.03789 1.2251,-0.0627zM18.53645,26.09053c0.05261,0 0.12916,-0.07809 0.12916,-0.13176c0,-0.02339 -0.13729,-0.15808 -0.30511,-0.29931c-1.00694,-0.84744 -1.58267,-1.63295 -1.78244,-2.43187c-0.14548,-0.58179 -0.0676,-1.09878 0.336,-2.23086c0.17864,-0.50109 0.20519,-0.86753 0.08215,-1.13402c-0.06545,-0.14176 -0.06963,-0.14437 -0.08939,-0.05577c-0.13122,0.5886 -0.20435,0.82493 -0.38416,1.24142c-0.31511,0.72986 -0.38885,1.00398 -0.4112,1.52856c-0.02273,0.53355 0.03045,0.80689 0.24682,1.26861c0.31265,0.66717 0.86712,1.29324 1.69296,1.91159c0.24491,0.18337 0.46326,0.33341 0.48521,0.33341zM38.6004,24.25711l-0.06595,0.12853l-0.14374,-0.32805c-0.40517,-0.9247 -0.85268,-1.39917 -1.25846,-1.33428c-0.28355,0.04534 -0.47461,0.21705 -0.74954,0.67362c-0.14577,0.24207 -0.13541,0.2586 -0.20014,-0.31942c-0.02184,-0.19502 -0.08472,-0.50455 -0.13974,-0.68785c-0.11289,-0.37628 -0.14354,-0.57133 -0.11036,-0.70351c0.01252,-0.04986 0.10892,-0.20307 0.21422,-0.34047c0.10867,-0.14178 0.16352,-0.23908 0.12687,-0.22502c-0.03553,0.01363 -0.08513,0.02479 -0.11022,0.02479c-0.02509,0 -0.14334,0.05885 -0.26279,0.13077c-0.11944,0.07192 -0.22018,0.1263 -0.2239,0.12084c-0.0037,-0.00546 -0.07088,-0.12705 -0.14929,-0.2702c-0.07841,-0.14315 -0.24019,-0.41591 -0.35952,-0.60614c-0.11932,-0.19023 -0.21695,-0.35777 -0.21695,-0.3723c0,-0.01454 0.13916,-0.07368 0.30925,-0.13143c0.4204,-0.14274 0.63796,-0.28528 0.77714,-0.50917c0.1047,-0.16843 0.12665,-0.18424 0.25577,-0.18424c0.15384,0 0.67957,0.15436 0.89037,0.26142c0.20609,0.10466 0.43164,0.37423 0.49685,0.59378c0.08187,0.27572 0.11549,0.90173 0.06215,1.1577c-0.06495,0.31175 -0.09139,0.32537 -0.65526,0.33762l-0.48172,0.01046l0.27886,0.08904c0.52382,0.16726 0.81027,0.15223 1.03912,-0.05451l0.14233,-0.12858l0.15265,0.12754c0.58164,0.48595 0.77295,1.2637 0.52556,2.13663c-0.04269,0.15063 -0.1073,0.33172 -0.14356,0.40242zM12.51358,23.98051c0.02094,0.05423 0.00434,0.06474 -0.09969,0.06307c-0.18119,-0.00289 -0.65071,-0.15067 -0.88402,-0.27824c-0.61412,-0.33578 -0.9179,-0.92121 -0.82425,-1.5884c0.0422,-0.30065 0.16738,-0.69461 0.31033,-0.97665c0.12046,-0.23767 0.26015,-0.69493 0.24425,-0.79954c-0.0089,-0.05856 -0.08439,0.04369 -0.27961,0.37872c-0.14708,0.25242 -0.31193,0.55622 -0.36633,0.67511c-0.0544,0.11889 -0.10425,0.21079 -0.11086,0.20423c-0.04087,-0.04087 -0.12933,-0.73563 -0.12858,-1.0153c0.00036,-0.37745 0.05315,-0.61463 0.20199,-0.90761c0.17397,-0.34244 0.40139,-0.52574 1.0462,-0.84323c0.89566,-0.44101 1.04608,-0.6172 1.42796,-1.67259c0.22755,-0.62888 0.42493,-0.97327 0.71775,-1.25233c0.47541,-0.45308 1.02614,-0.56554 1.96938,-0.40215c0.32403,0.05613 0.48322,0.10876 0.83657,0.2766c0.24002,0.114 0.57862,0.24278 0.75244,0.28617c0.17382,0.04339 0.42385,0.1058 0.55564,0.13869c0.40323,0.10065 0.5844,0.33319 0.43063,0.55272c-0.0526,0.0751 -0.06414,0.07622 -0.28815,0.02817c-0.31579,-0.06774 -1.17458,-0.06635 -1.46604,0.00238c-0.12584,0.02967 -0.34122,0.11575 -0.47862,0.19127l-0.24983,0.13732l-0.50667,-0.07479c-0.27868,-0.04114 -0.51128,-0.07129 -0.51685,-0.06702c-0.00559,0.00428 -0.00016,0.03386 0.01207,0.06574c0.03066,0.07988 0.2704,0.24071 0.47408,0.31803l0.16927,0.06426l-0.17463,0.22472c-0.47167,0.60697 -0.65386,1.34934 -0.63124,2.5721l0.01189,0.64234l-0.11154,-0.02885c-0.06134,-0.01586 -0.27886,-0.02885 -0.48335,-0.02885c-0.32713,0 -0.39781,0.01218 -0.58815,0.10136c-0.47063,0.22049 -0.89887,0.81593 -1.05022,1.46024c-0.105,0.447 -0.06846,1.17244 0.07819,1.55231zM12.16991,19.38336l-0.47574,0.15932l0.35321,0.00178c0.64302,0.00323 1.004,-0.11112 1.20481,-0.38166c0.07267,-0.09793 0.07794,-0.15242 0.07794,-0.80856c0,-0.38696 -0.00339,-0.70368 -0.00748,-0.70368c-0.00411,-0.00007 -0.0687,0.10936 -0.14354,0.24318c-0.12114,0.21662 -0.1393,0.28444 -0.16554,0.61839c-0.04348,0.55333 -0.11504,0.62722 -0.84367,0.87124zM34.90953,20.06714c-0.01318,0 -0.0971,-0.09502 -0.1865,-0.21115c-0.49018,-0.63678 -1.42377,-1.08903 -2.37704,-1.1515l-0.35692,-0.02339l0.08867,-0.33875c0.06913,-0.2641 0.08464,-0.39962 0.0704,-0.61497c-0.06405,-0.9682 -1.20018,-1.87927 -2.79105,-2.23817c-0.27288,-0.06159 -0.42803,-0.07308 -0.81992,-0.06084c-0.78708,0.02457 -1.18776,0.20499 -1.81757,0.81843c-0.2047,0.19938 -0.37509,0.36252 -0.37865,0.36252c-0.00356,0 -0.01737,-0.08217 -0.03069,-0.18259c-0.0353,-0.26607 -0.24713,-0.6596 -0.47623,-0.8847c-0.40429,-0.39722 -1.07873,-0.70989 -1.83539,-0.85089c-0.51032,-0.09509 -1.49052,-0.11239 -1.95624,-0.03452c-0.77869,0.13021 -1.34397,0.3751 -1.75001,0.75814c-0.42386,0.39985 -0.6232,0.9145 -0.68284,1.76298c-0.01397,0.19861 -0.03052,0.3611 -0.03683,0.3611c-0.0063,0 -0.10134,-0.06274 -0.2112,-0.13943c-0.10987,-0.07669 -0.3072,-0.18911 -0.43853,-0.24984c-0.13133,-0.06073 -0.24421,-0.11355 -0.25082,-0.11738c-0.00662,-0.00383 0.01429,-0.05789 0.04648,-0.12012c0.03218,-0.06223 0.05851,-0.19759 0.05851,-0.3008c0,-0.16365 -0.01733,-0.20682 -0.13555,-0.33768c-0.17148,-0.18981 -0.55963,-0.37645 -0.99847,-0.48012c-0.62285,-0.14714 -0.64797,-0.15655 -0.76089,-0.28517c-0.2065,-0.23519 -0.19596,-0.5622 0.02503,-0.77682c0.28562,-0.27739 1.06877,-0.39348 1.64679,-0.24412c0.17382,0.04492 0.3867,0.12289 0.47307,0.17328c0.28455,0.166 0.45205,0.58677 0.46005,1.15565c0.0024,0.17032 0.01045,0.30968 0.0179,0.30968c0.00745,0 0.04952,-0.11844 0.09349,-0.26319c0.11073,-0.36459 0.08928,-0.77757 -0.0573,-1.10267c-0.05749,-0.12751 -0.12745,-0.25086 -0.15547,-0.27411c-0.0828,-0.06873 -0.06006,-0.13643 0.10708,-0.31869c0.32189,-0.35101 0.72037,-0.53246 1.16933,-0.53246c0.26243,0 0.27473,0.00397 0.31689,0.10225c0.02413,0.05624 0.07678,0.15061 0.117,0.20972c0.08903,0.13084 0.0938,0.1263 -0.40109,0.3819c-0.18526,0.09569 -0.31784,0.18031 -0.2946,0.18805c0.02322,0.00774 0.25728,-0.02941 0.52012,-0.08256c0.39292,-0.07946 0.49275,-0.1132 0.56153,-0.1898c0.10168,-0.11322 0.10571,-0.19931 0.01484,-0.31638c-0.14399,-0.18553 -0.16414,-0.25398 -0.10246,-0.34811c0.0667,-0.10179 0.34987,-0.23998 0.69182,-0.33762c0.35999,-0.10278 1.05555,-0.09471 1.35705,0.01575c0.31662,0.116 0.50199,0.2465 0.50199,0.35339c0,0.08217 -0.01719,0.08851 -0.30472,0.11249c-0.29376,0.0245 -0.58762,0.11812 -0.64079,0.20415c-0.01855,0.03003 0.26086,0.04139 1.01769,0.04139c0.61699,0 1.04326,-0.0141 1.04326,-0.03452c0,-0.03299 -0.17184,-0.07473 -0.5763,-0.13999c-0.18105,-0.02917 -0.18573,-0.03334 -0.18031,-0.15186c0.00307,-0.06703 0.02654,-0.14711 0.05215,-0.17796c0.08265,-0.09958 0.49148,-0.30416 0.81601,-0.40832c0.42268,-0.13567 1.21784,-0.16977 1.72892,-0.07416c0.89716,0.16784 1.93292,0.7792 2.00922,1.18595c0.04397,0.23437 0.02478,0.24687 -0.38139,0.24831c-0.64494,0.0023 -1.37357,0.1852 -1.71221,0.42978c-0.09675,0.06987 -0.19608,0.13683 -0.22075,0.14879c-0.02538,0.01231 -0.18405,-0.12096 -0.36544,-0.30694l-0.32058,-0.32869l0.15936,0.29741c0.08765,0.16357 0.22741,0.41681 0.31059,0.56275l0.15124,0.26534l0.11062,-0.09086c0.44012,-0.36153 1.34936,-0.60631 2.25388,-0.60683c0.32823,-0.00018 1.24659,0.10969 1.70497,0.20398l0.09296,0.01912l-0.09296,-0.05064c-0.13236,-0.07211 -1.04054,-0.42422 -1.15755,-0.4488c-0.09063,-0.01904 -0.09919,-0.03784 -0.11538,-0.25333c-0.00962,-0.12802 -0.02954,-0.26058 -0.04427,-0.29458c-0.02288,-0.05283 0.0091,-0.06566 0.22014,-0.08826c0.33508,-0.03588 0.8727,0.01066 1.16898,0.10119c0.52615,0.16078 0.93952,0.50197 1.17258,0.96782c0.07216,0.14424 0.1312,0.28511 0.1312,0.31303c0,0.04131 -0.14664,0.05077 -0.787,0.05077c-0.43285,0 -0.77966,0.00733 -0.7707,0.01629c0.00895,0.00896 0.40912,0.10178 0.88924,0.20626c1.11339,0.24229 1.83417,0.42717 2.12813,0.54588c0.60892,0.2459 0.98212,0.5143 1.1358,0.81684c0.07009,0.13798 0.177,0.56254 0.14877,0.59077c-0.00751,0.00751 -0.22229,-0.02722 -0.47731,-0.07717c-0.25501,-0.04995 -0.46627,-0.09096 -0.46947,-0.09096c-0.0032,-0.00008 0.01215,-0.05869 0.03411,-0.13024c0.02195,-0.07156 0.03034,-0.1397 0.01861,-0.15143c-0.03809,-0.03809 -0.44115,0.25548 -0.49576,0.36109c-0.12297,0.23779 -0.02331,0.71119 0.22885,1.08714l0.12167,0.18141l-0.02104,-0.35266c-0.01157,-0.19396 -0.00959,-0.41363 0.00438,-0.48815c0.0245,-0.1306 0.03105,-0.13544 0.18175,-0.13432c0.27777,0.00208 0.94151,0.1356 1.15112,0.23156c0.43795,0.2005 0.73,0.61182 0.76313,1.07477c0.03204,0.44774 -0.08693,0.64076 -0.56753,0.92079c-0.14282,0.08322 -0.27046,0.1513 -0.28363,0.1513z" id="path3960 1 1" fill="#ffffff" stroke-width="0"></path><path d="M2,24c0,-12.15026 9.84974,-22 22,-22c12.15026,0 22,9.84974 22,22c0,12.15026 -9.84974,22 -22,22c-12.15026,0 -22,-9.84974 -22,-22z" id="base 1 1 1" fill="none" stroke-width="1"></path><g id="svg27183 1 1" fill="#000000" stroke-width="1" font-family="Roboto, sans-serif" font-weight="normal" font-size="14" text-anchor="start"><g id="layer1 1 1"></g></g><rect x="2" y="2" width="44" height="22" fill="none" stroke-width="1"></rect><path d="M2,24v-22h44v22z" fill="none" stroke-width="1"></path><path d="M2,24v-22h44v22z" fill="none" stroke-width="1"></path><path d="M2,24v-22h44v22z" fill="none" stroke-width="1"></path><path d="M2,24v-22h44v22z" fill="none" stroke-width="1"></path></g></svg>