<?xml version="1.0" standalone="no"?>
<!DOCTYPE svg PUBLIC "-//W3C//DTD SVG 20010904//EN"
 "http://www.w3.org/TR/2001/REC-SVG-20010904/DTD/svg10.dtd">
<svg version="1.0" xmlns="http://www.w3.org/2000/svg"
 width="16.000000pt" height="16.000000pt" viewBox="0 0 16.000000 16.000000"
 preserveAspectRatio="xMidYMid meet">
<metadata>
Created by potrace 1.11, written by Peter Selinger 2001-2013
</metadata>
<g transform="translate(0.000000,16.000000) scale(0.002286,-0.002286)"
fill="#000000" stroke="none">
<path d="M3338 6705 c-2 -2 -46 -5 -98 -9 -52 -3 -104 -8 -115 -10 -11 -2 -45
-7 -76 -10 -31 -4 -67 -9 -80 -12 -13 -2 -46 -9 -74 -14 -78 -15 -97 -19 -145
-31 -25 -6 -52 -12 -60 -14 -8 -2 -42 -11 -75 -21 -33 -10 -64 -19 -70 -20
-78 -17 -325 -119 -495 -204 -134 -67 -126 -62 -260 -148 -336 -214 -580 -438
-854 -783 -31 -38 -165 -240 -203 -304 -104 -177 -217 -427 -276 -610 -36
-112 -82 -276 -92 -330 -23 -121 -36 -196 -41 -235 -3 -25 -7 -58 -10 -75 -25
-190 -25 -605 0 -755 3 -14 7 -47 11 -75 28 -238 132 -603 242 -845 25 -56
108 -223 123 -250 110 -189 232 -365 355 -516 54 -65 317 -329 385 -386 263
-218 571 -404 865 -521 92 -36 126 -49 135 -52 3 0 30 -9 60 -20 30 -10 60
-20 65 -21 6 -2 35 -10 65 -19 30 -9 62 -17 70 -19 8 -2 33 -9 55 -14 22 -6
51 -13 65 -16 14 -3 50 -10 80 -16 64 -12 86 -16 160 -26 30 -4 66 -8 80 -10
173 -24 563 -24 750 1 14 1 49 6 79 10 30 4 63 9 75 11 12 2 37 7 56 10 91 16
257 59 375 95 397 124 770 329 1102 605 109 90 341 329 437 449 80 101 256
355 256 370 0 4 9 19 20 35 19 26 130 246 163 320 78 179 173 477 193 605 3
22 8 43 10 46 3 5 18 92 29 174 3 22 7 49 10 60 25 122 25 694 0 785 -3 8 -7
39 -10 69 -3 29 -7 56 -9 60 -2 3 -7 29 -10 56 -17 124 -102 429 -168 595
-170 428 -431 819 -764 1140 -206 199 -479 398 -704 514 -41 21 -79 42 -85 46
-13 9 -154 72 -260 115 -151 61 -451 148 -585 169 -19 3 -46 8 -60 10 -14 3
-47 7 -75 11 -27 3 -57 7 -65 10 -49 12 -541 30 -552 20z"/>
</g>
</svg>
